<?xml version="1.0" encoding="utf-8"?>
<!-- Generator: Adobe Illustrator 20.1.0, SVG Export Plug-In . SVG Version: 6.00 Build 0)  -->
<svg version="1.1" id="Lager_1" xmlns="http://www.w3.org/2000/svg" xmlns:xlink="http://www.w3.org/1999/xlink" x="0px" y="0px"
	 viewBox="0 0 36 36" enable-background="new 0 0 36 36" xml:space="preserve">
<g>
	<defs>
		<rect id="SVGID_1_" width="36" height="36"/>
	</defs>
	<clipPath id="SVGID_2_">
		<use xlink:href="#SVGID_1_"  overflow="visible"/>
	</clipPath>
	<path clip-path="url(#SVGID_2_)" fill="#003762" d="M18,0.5c-4.7,0-9.1,1.8-12.4,5.1C2.3,8.9,0.5,13.3,0.5,18
		c0,5.9,2.9,11.4,7.9,14.6l-0.9,2.2l-0.3,0.7h0.8H18c9.6,0,17.5-7.9,17.5-17.5C35.5,8.4,27.6,0.5,18,0.5"/>
	<path clip-path="url(#SVGID_2_)" fill="none" stroke="#FFFFFF" stroke-miterlimit="10" d="M18,0.5c-4.7,0-9.1,1.8-12.4,5.1
		C2.3,8.9,0.5,13.3,0.5,18c0,5.9,2.9,11.4,7.9,14.6l-0.9,2.2l-0.3,0.7h0.8H18c9.6,0,17.5-7.9,17.5-17.5C35.5,8.4,27.6,0.5,18,0.5z"
		/>
</g>
<polygon fill="#FFFFFF" points="12.1,19.1 11.7,19.5 11.7,21.3 12.3,21.3 12.3,23.4 7.2,23.4 7.2,21.3 7.8,21.3 7.8,13.9 7.2,13.9 
	7.2,11.7 12.3,11.7 12.3,13.9 11.7,13.9 11.7,16.8 14.2,13.9 13.5,13.9 13.5,11.7 18.1,11.7 18.1,13.9 17.5,13.9 15,16.9 17.5,21.3 
	18.1,21.3 18.1,23.4 14.5,23.4 "/>
<g>
	<defs>
		<rect id="SVGID_3_" width="36" height="36"/>
	</defs>
	<clipPath id="SVGID_4_">
		<use xlink:href="#SVGID_3_"  overflow="visible"/>
	</clipPath>
	<path clip-path="url(#SVGID_4_)" fill="#FFFFFF" d="M23.7,17c0.8,0,1.2-0.3,1.2-1.2v-0.6c0-0.9-0.3-1.2-1.2-1.2h-0.6V17H23.7z
		 M18.6,21.3h0.6v-7.4h-0.6v-2.2h6.2c3.2,0,4,1.7,4,3.2v0.4c0,1.3-0.5,2.2-1.5,2.6l1.5,3.3h0.5v2.2h-3.6l-1.9-4.5h-0.6v2.3h0.5v2.2
		h-5V21.3z"/>
</g>
</svg>
