<?xml version="1.0" encoding="utf-8"?>
<!-- Generator: Adobe Illustrator 20.1.0, SVG Export Plug-In . SVG Version: 6.00 Build 0)  -->
<svg version="1.1" id="Lager_1" xmlns="http://www.w3.org/2000/svg" xmlns:xlink="http://www.w3.org/1999/xlink" x="0px" y="0px"
	 viewBox="0 0 438 43" enable-background="new 0 0 438 43" xml:space="preserve">
<g>
	<defs>
		<rect id="SVGID_1_" width="437.5" height="42.7"/>
	</defs>
	<clipPath id="SVGID_2_">
		<use xlink:href="#SVGID_1_"  overflow="visible"/>
	</clipPath>
	<path clip-path="url(#SVGID_2_)" fill="#4BD6D3" d="M416.9,38.4h3.5V16.8c2.8-2,4.6-3.1,8.2-3.1c3.4,0,5.4,0.8,5.4,5.6v19.1h3.5
		V20.2c0-7.3-3.5-9.3-8.4-9.3c-2.9,0-5.1,1.1-6.5,1.9l-2.3,2.8l-1.7-4.2h-1.7V38.4z M393.9,23.2c0.3-8.5,3.6-9.6,8.1-9.6
		c4.5,0,6.9,2,6.9,9.2v0.5H393.9z M402.4,39.1c3.6,0,6.9-1.1,8.8-2l-0.9-2.4c-2.9,1.2-4.9,1.9-7.6,1.9c-5.7,0-8.5-2.4-8.7-10.6h18.5
		v-2.2c0-8.3-3.7-12.8-10.5-12.8c-6.6,0-11.6,4.1-11.6,14C390.4,34.3,394.3,39.1,402.4,39.1 M378.8,39.1c6.6,0,9.5-3.5,9.5-7.7
		c0-5-2.8-7-8.3-8.3c-4.9-1.1-6.4-1.3-6.4-4.9c0-3.8,2.1-4.6,5.8-4.6c3.5,0,4.9,0.6,7.2,1.3l0.7-2.5c-2-0.9-4.4-1.6-7.8-1.6
		c-5.7,0-9,2.8-9,7.5c0,4.8,3.1,6.6,7.5,7.5c6.3,1.4,7.1,2,7.1,5.6c0,3.9-2.4,5-6.3,5c-3.1,0-5.4-0.7-7.4-1.5l-0.8,2.4
		C372.5,38.3,374.8,39.1,378.8,39.1 M356,36.4c-4.6,0-5.9-1.1-5.9-4.9v-0.2c0-4.2,1.7-5.4,7.4-5.9l5.4-0.5v8.7
		C361.5,35,359.9,36.4,356,36.4 M355.6,39.1c1.8,0,3.8-0.4,5.1-1l2.4-3l1.5,3.4c0.7,0.3,1.7,0.5,2.5,0.5c1.1,0,1.9-0.3,2.4-0.5
		l-0.3-2.1h-0.9c-1.6,0-2-0.5-2-2.1V21.6c0-7.7-2.4-10.7-9-10.7c-3.6,0-5.9,0.8-8.9,1.8l0.6,2.5c3.1-0.8,5.4-1.5,8.5-1.5
		c4.8,0,5.5,2,5.5,6.5v2.4l-5.6,0.4c-7,0.5-10.7,3-10.7,8.3C346.6,37.1,350.6,39.1,355.6,39.1 M332.4,36.5c-3,0-5-1-7.2-2.7V16.9
		c1.5-1.3,3.8-3.2,7.9-3.2c4.4,0,7.5,1.5,7.5,10.7V25C340.7,34,338,36.5,332.4,36.5 M332.8,39.1c7.2,0,11.4-4.5,11.4-14.5
		c0-9.5-4.1-13.7-10.7-13.7c-3.9,0-6.6,1.9-8.4,3.7V0h-3.5v38.5h1.5l1.3-3.6l3,3.2C328.6,38.5,330.8,39.1,332.8,39.1 M305.2,36.4
		c-4.6,0-5.9-1.1-5.9-4.9v-0.2c0-4.2,1.7-5.4,7.4-5.9l5.4-0.5v8.7C310.7,35,309,36.4,305.2,36.4 M304.8,39.1c1.8,0,3.8-0.4,5.1-1
		l2.4-3l1.5,3.4c0.7,0.3,1.7,0.5,2.5,0.5c1.1,0,1.9-0.3,2.4-0.5l-0.3-2.1h-0.9c-1.6,0-2-0.5-2-2.1V21.6c0-7.7-2.4-10.7-9-10.7
		c-3.6,0-5.9,0.8-8.9,1.8l0.6,2.5c3.1-0.8,5.4-1.5,8.5-1.5c4.8,0,5.5,2,5.5,6.5v2.4l-5.6,0.4c-7,0.5-10.7,3-10.7,8.3
		C295.7,37.1,299.8,39.1,304.8,39.1 M289.4,38.9c2.3,0,3.6-0.4,5.2-1l-0.2-1.7H290c-1.8,0-2.2-0.6-2.2-2.5V14.1h6.2v-2.7h-6.2V4.1
		h-1.8l-1.5,7.3h-4.1v2.7h3.9v19.3C284.3,37.3,285.8,38.9,289.4,38.9 M267.2,36.4c-4.6,0-5.9-1.1-5.9-4.9v-0.2
		c0-4.2,1.7-5.4,7.4-5.9l5.4-0.5v8.7C272.7,35,271,36.4,267.2,36.4 M266.8,39.1c1.8,0,3.8-0.4,5.1-1l2.4-3l1.5,3.4
		c0.7,0.3,1.7,0.5,2.5,0.5c1.1,0,1.9-0.3,2.4-0.5l-0.3-2.1h-0.9c-1.6,0-2-0.5-2-2.1V21.6c0-7.7-2.4-10.7-9-10.7
		c-3.6,0-5.9,0.8-8.9,1.8l0.6,2.5c3.1-0.8,5.4-1.5,8.5-1.5c4.8,0,5.5,2,5.5,6.5v2.4l-5.6,0.4c-7,0.5-10.7,3-10.7,8.3
		C257.7,37.1,261.8,39.1,266.8,39.1 M242.9,36.5c-5.4,0-8.1-2.5-8.1-11.5v-0.5c0-9.2,3.5-10.7,7.6-10.7c4.1,0,6.2,1.6,7.6,2.8v17.4
		C247.9,35.5,245.9,36.5,242.9,36.5 M242.5,39.1c2,0,4.2-0.6,5.3-1l2.7-2.9l1.4,3.3h1.7V0H250v14.1c-1.7-1.7-4-3.3-7.9-3.3
		c-6.1,0-11,4.3-11,13.7C231.2,34.7,235.5,39.1,242.5,39.1 M216.1,38.4h3.5V16.7c2-1.6,4-2.6,6.7-2.6c1.6,0,2.6,0.2,3.6,0.5l0.7-3.2
		c-0.7-0.2-1.8-0.5-3.4-0.5c-1.8,0-3.7,0.6-4.9,1.2l-2.7,3.3l-1.7-4.2h-1.7V38.4z M199.7,36.6c-2,0-3.8-0.4-5.2-1.5l11.9-18.5
		c1.1,1.8,1.7,4.4,1.7,8.3v0.5C208.1,33.7,204.6,36.6,199.7,36.6 M193,33.3c-1.1-1.8-1.8-4.5-1.8-8.3v-0.5c0-8.6,3.3-11,8.5-11
		c2.1,0,3.8,0.4,5.1,1.3L193,33.3z M189.6,42.7l3.4-5.4c1.9,1.1,4.1,1.8,6.7,1.8c7.2,0,12-4.9,12-14.3c0-4.8-1.4-8.4-3.6-10.8
		l3.6-5.6l-1.9-1.1l-3.4,5.3c-1.9-1.2-4.1-1.8-6.6-1.8c-7.1,0-12.1,4.8-12.1,14.1c0,4.8,1.4,8.5,3.7,10.9l-3.6,5.7L189.6,42.7z
		 M172.6,36.5c-5.4,0-8.1-2.5-8.1-11.5v-0.5c0-9.2,3.5-10.7,7.6-10.7c4.1,0,6.2,1.6,7.6,2.8v17.4C177.6,35.5,175.6,36.5,172.6,36.5
		 M172.2,39.1c2,0,4.2-0.6,5.3-1l2.7-2.9l1.4,3.3h1.7V0h-3.5v14.1c-1.7-1.7-4-3.3-7.9-3.3c-6.1,0-11,4.3-11,13.7
		C160.9,34.7,165.1,39.1,172.2,39.1 M136.1,38.4h3.5V16.8c2.8-2,4.6-3.1,8.2-3.1c3.4,0,5.4,0.8,5.4,5.6v19.1h3.5V20.2
		c0-7.3-3.5-9.3-8.4-9.3c-2.9,0-5.1,1.1-6.5,1.9l-2.3,2.8l-1.7-4.2h-1.7V38.4z M119.5,36.4c-4.6,0-5.9-1.1-5.9-4.9v-0.2
		c0-4.2,1.7-5.4,7.4-5.9l5.4-0.5v8.7C125.1,35,123.4,36.4,119.5,36.4 M119.1,39.1c1.8,0,3.8-0.4,5.1-1l2.4-3l1.5,3.4
		c0.7,0.3,1.7,0.5,2.5,0.5c1.1,0,1.9-0.3,2.4-0.5l-0.3-2.1h-0.9c-1.6,0-2-0.5-2-2.1V21.6c0-7.7-2.4-10.7-9-10.7
		c-3.6,0-5.9,0.8-8.9,1.8l0.6,2.5c3.1-0.8,5.4-1.5,8.5-1.5c4.8,0,5.5,2,5.5,6.5v2.4l-5.6,0.4c-7,0.5-10.7,3-10.7,8.3
		C110.1,37.1,114.1,39.1,119.1,39.1 M95.2,38.4h3.5V16.7c2-1.6,4-2.6,6.7-2.6c1.6,0,2.6,0.2,3.6,0.5l0.7-3.2
		c-0.7-0.2-1.8-0.5-3.4-0.5c-1.8,0-3.7,0.6-4.9,1.2l-2.7,3.3l-1.7-4.2h-1.7V38.4z M72.3,23.2c0.3-8.5,3.6-9.6,8.1-9.6
		c4.5,0,6.9,2,6.9,9.2v0.5H72.3z M80.7,39.1c3.6,0,6.9-1.1,8.8-2l-0.9-2.4c-2.9,1.2-4.9,1.9-7.6,1.9c-5.7,0-8.5-2.4-8.7-10.6h18.5
		v-2.2c0-8.3-3.7-12.8-10.5-12.8c-6.6,0-11.6,4.1-11.6,14C68.7,34.3,72.6,39.1,80.7,39.1 M54.2,38.4h3.9l9.9-27h-3.5L57.6,31
		l-1.4,6.1L55,31l-6.9-19.7h-3.7L54.2,38.4z M24.9,23.2c0.3-8.5,3.6-9.6,8.1-9.6c4.5,0,6.9,2,6.9,9.2v0.5H24.9z M33.3,39.1
		c3.6,0,6.9-1.1,8.8-2l-0.9-2.4c-2.9,1.2-4.9,1.9-7.6,1.9c-5.7,0-8.5-2.4-8.7-10.6h18.5v-2.2c0-8.3-3.7-12.8-10.5-12.8
		c-6.6,0-11.6,4.1-11.6,14C21.3,34.3,25.2,39.1,33.3,39.1 M0,38.4h20.4v-3.1H3.7V4.5H0V38.4z"/>
</g>
</svg>
