<?xml version="1.0" encoding="utf-8"?>
<!-- Generator: Adobe Illustrator 20.1.0, SVG Export Plug-In . SVG Version: 6.00 Build 0)  -->
<svg version="1.1" id="Lager_1" xmlns="http://www.w3.org/2000/svg" xmlns:xlink="http://www.w3.org/1999/xlink" x="0px" y="0px"
	 viewBox="0 0 236 23" enable-background="new 0 0 236 23" xml:space="preserve">
<g>
	<defs>
		<rect id="SVGID_1_" width="235.6" height="23"/>
	</defs>
	<clipPath id="SVGID_2_">
		<use xlink:href="#SVGID_1_"  overflow="visible"/>
	</clipPath>
	<path clip-path="url(#SVGID_2_)" fill="#4BD6D3" d="M224.5,20.7h1.9V9.1c1.5-1.1,2.5-1.7,4.4-1.7c1.8,0,2.9,0.4,2.9,3v10.3h1.9
		v-9.8c0-3.9-1.9-5-4.5-5c-1.5,0-2.7,0.6-3.5,1l-1.3,1.5l-0.9-2.3h-0.9V20.7z M212.1,12.5c0.2-4.6,2-5.2,4.3-5.2
		c2.4,0,3.7,1.1,3.7,4.9v0.3H212.1z M216.7,21.1c2,0,3.7-0.6,4.7-1.1l-0.5-1.3c-1.6,0.6-2.6,1-4.1,1c-3.1,0-4.6-1.3-4.7-5.7h10v-1.2
		c0-4.5-2-6.9-5.6-6.9c-3.6,0-6.3,2.2-6.3,7.6C210.2,18.5,212.3,21.1,216.7,21.1 M204,21.1c3.5,0,5.1-1.9,5.1-4.2
		c0-2.7-1.5-3.8-4.5-4.5c-2.6-0.6-3.5-0.7-3.5-2.6c0-2,1.1-2.5,3.1-2.5c1.9,0,2.6,0.3,3.9,0.7l0.4-1.3c-1.1-0.5-2.4-0.8-4.2-0.8
		c-3.1,0-4.9,1.5-4.9,4.1c0,2.6,1.7,3.6,4,4.1c3.4,0.7,3.8,1.1,3.8,3c0,2.1-1.3,2.7-3.4,2.7c-1.7,0-2.9-0.4-4-0.8l-0.4,1.3
		C200.6,20.6,201.8,21.1,204,21.1 M191.7,19.6c-2.5,0-3.2-0.6-3.2-2.7v-0.1c0-2.3,0.9-2.9,4-3.2l2.9-0.3v4.7
		C194.7,18.9,193.8,19.6,191.7,19.6 M191.5,21.1c1,0,2-0.2,2.8-0.6l1.3-1.6l0.8,1.8c0.4,0.2,0.9,0.3,1.3,0.3c0.6,0,1-0.1,1.3-0.3
		l-0.1-1.1h-0.5c-0.8,0-1.1-0.3-1.1-1.1v-6.8c0-4.1-1.3-5.8-4.9-5.8c-1.9,0-3.2,0.4-4.8,1l0.3,1.4c1.7-0.4,2.9-0.8,4.6-0.8
		c2.6,0,2.9,1.1,2.9,3.5v1.3l-3,0.2c-3.8,0.3-5.7,1.6-5.7,4.5C186.6,20,188.8,21.1,191.5,21.1 M179,19.7c-1.6,0-2.7-0.5-3.9-1.5V9.1
		c0.8-0.7,2-1.7,4.3-1.7c2.4,0,4.1,0.8,4.1,5.8v0.3C183.5,18.3,182,19.7,179,19.7 M179.2,21.1c3.9,0,6.2-2.4,6.2-7.8
		c0-5.1-2.2-7.4-5.7-7.4c-2.1,0-3.5,1-4.5,2V0h-1.9v20.7h0.8l0.7-2l1.6,1.7C176.9,20.7,178.1,21.1,179.2,21.1 M164.3,19.6
		c-2.5,0-3.2-0.6-3.2-2.7v-0.1c0-2.3,0.9-2.9,4-3.2l2.9-0.3v4.7C167.3,18.9,166.4,19.6,164.3,19.6 M164.1,21.1c1,0,2-0.2,2.8-0.6
		l1.3-1.6l0.8,1.8c0.4,0.2,0.9,0.3,1.3,0.3c0.6,0,1-0.1,1.3-0.3l-0.1-1.1H171c-0.8,0-1.1-0.3-1.1-1.1v-6.8c0-4.1-1.3-5.8-4.9-5.8
		c-1.9,0-3.2,0.4-4.8,1l0.3,1.4c1.7-0.4,2.9-0.8,4.6-0.8c2.6,0,2.9,1.1,2.9,3.5v1.3l-3,0.2c-3.8,0.3-5.7,1.6-5.7,4.5
		C159.2,20,161.4,21.1,164.1,21.1 M155.8,20.9c1.3,0,1.9-0.2,2.8-0.5l-0.1-0.9h-2.4c-1,0-1.2-0.3-1.2-1.3V7.6h3.3V6.1h-3.3V2.2h-1
		l-0.8,3.9H151v1.5h2.1V18C153.1,20.1,153.9,20.9,155.8,20.9 M143.9,19.6c-2.5,0-3.2-0.6-3.2-2.7v-0.1c0-2.3,0.9-2.9,4-3.2l2.9-0.3
		v4.7C146.8,18.9,145.9,19.6,143.9,19.6 M143.6,21.1c1,0,2-0.2,2.8-0.6l1.3-1.6l0.8,1.8c0.4,0.2,0.9,0.3,1.3,0.3
		c0.6,0,1-0.1,1.3-0.3l-0.1-1.1h-0.5c-0.8,0-1.1-0.3-1.1-1.1v-6.8c0-4.1-1.3-5.8-4.9-5.8c-1.9,0-3.2,0.4-4.8,1l0.3,1.4
		c1.7-0.4,2.9-0.8,4.6-0.8c2.6,0,2.9,1.1,2.9,3.5v1.3l-3,0.2c-3.8,0.3-5.7,1.6-5.7,4.5C138.8,20,140.9,21.1,143.6,21.1 M130.8,19.7
		c-2.9,0-4.4-1.4-4.4-6.2v-0.3c0-5,1.9-5.8,4.1-5.8c2.2,0,3.3,0.8,4.1,1.5v9.4C133.5,19.1,132.4,19.7,130.8,19.7 M130.6,21.1
		c1.1,0,2.3-0.3,2.8-0.6l1.5-1.5l0.8,1.8h0.9V0h-1.9v7.6c-0.9-0.9-2.2-1.8-4.2-1.8c-3.3,0-5.9,2.3-5.9,7.4
		C124.5,18.7,126.8,21.1,130.6,21.1 M116.4,20.7h1.9V9c1.1-0.9,2.1-1.4,3.6-1.4c0.9,0,1.4,0.1,1.9,0.3l0.4-1.7
		c-0.4-0.1-1-0.3-1.8-0.3c-1,0-2,0.3-2.7,0.7l-1.5,1.8l-0.9-2.3h-0.9V20.7z M107.5,19.7c-1.1,0-2-0.2-2.8-0.8l6.4-10
		c0.6,1,0.9,2.4,0.9,4.5v0.3C112.1,18.2,110.2,19.7,107.5,19.7 M103.9,17.9c-0.6-1-1-2.4-1-4.5v-0.3c0-4.6,1.8-5.9,4.6-5.9
		c1.1,0,2,0.2,2.7,0.7L103.9,17.9z M102.1,23l1.8-2.9c1,0.6,2.2,1,3.6,1c3.9,0,6.4-2.7,6.4-7.7c0-2.6-0.7-4.5-2-5.8l1.9-3l-1-0.6
		l-1.8,2.9c-1-0.6-2.2-1-3.5-1c-3.8,0-6.5,2.6-6.5,7.6c0,2.6,0.7,4.6,2,5.9l-2,3.1L102.1,23z M92.9,19.7c-2.9,0-4.4-1.4-4.4-6.2
		v-0.3c0-5,1.9-5.8,4.1-5.8c2.2,0,3.3,0.8,4.1,1.5v9.4C95.6,19.1,94.5,19.7,92.9,19.7 M92.7,21.1c1.1,0,2.3-0.3,2.8-0.6L97,19
		l0.8,1.8h0.9V0h-1.9v7.6c-0.9-0.9-2.2-1.8-4.2-1.8c-3.3,0-5.9,2.3-5.9,7.4C86.6,18.7,88.9,21.1,92.7,21.1 M73.3,20.7h1.9V9.1
		c1.5-1.1,2.5-1.7,4.4-1.7c1.8,0,2.9,0.4,2.9,3v10.3h1.9v-9.8c0-3.9-1.9-5-4.5-5c-1.5,0-2.7,0.6-3.5,1l-1.3,1.5l-0.9-2.3h-0.9V20.7z
		 M64.4,19.6c-2.5,0-3.2-0.6-3.2-2.7v-0.1c0-2.3,0.9-2.9,4-3.2l2.9-0.3v4.7C67.3,18.9,66.4,19.6,64.4,19.6 M64.1,21.1
		c1,0,2-0.2,2.8-0.6l1.3-1.6l0.8,1.8c0.4,0.2,0.9,0.3,1.3,0.3c0.6,0,1-0.1,1.3-0.3l-0.1-1.1H71c-0.8,0-1.1-0.3-1.1-1.1v-6.8
		c0-4.1-1.3-5.8-4.9-5.8c-1.9,0-3.2,0.4-4.8,1l0.3,1.4c1.7-0.4,2.9-0.8,4.6-0.8c2.6,0,2.9,1.1,2.9,3.5v1.3l-3,0.2
		c-3.8,0.3-5.7,1.6-5.7,4.5C59.3,20,61.5,21.1,64.1,21.1 M51.3,20.7h1.9V9c1.1-0.9,2.1-1.4,3.6-1.4c0.9,0,1.4,0.1,1.9,0.3L59,6.2
		c-0.4-0.1-1-0.3-1.8-0.3c-1,0-2,0.3-2.7,0.7l-1.5,1.8l-0.9-2.3h-0.9V20.7z M38.9,12.5c0.2-4.6,2-5.2,4.3-5.2c2.4,0,3.7,1.1,3.7,4.9
		v0.3H38.9z M43.5,21.1c2,0,3.7-0.6,4.7-1.1l-0.5-1.3c-1.6,0.6-2.6,1-4.1,1c-3.1,0-4.6-1.3-4.7-5.7h10v-1.2c0-4.5-2-6.9-5.6-6.9
		C39.7,5.9,37,8,37,13.4C37,18.5,39.1,21.1,43.5,21.1 M29.2,20.7h2.1l5.3-14.5h-1.9L31,16.7L30.3,20l-0.7-3.3L25.9,6.1h-2L29.2,20.7
		z M13.4,12.5c0.2-4.6,2-5.2,4.3-5.2c2.4,0,3.7,1.1,3.7,4.9v0.3H13.4z M17.9,21.1c2,0,3.7-0.6,4.7-1.1l-0.5-1.3
		c-1.6,0.6-2.6,1-4.1,1c-3.1,0-4.6-1.3-4.7-5.7h10v-1.2c0-4.5-2-6.9-5.6-6.9c-3.6,0-6.3,2.2-6.3,7.6C11.5,18.5,13.6,21.1,17.9,21.1
		 M0,20.7h11V19H2V2.4H0V20.7z"/>
</g>
</svg>
