<?xml version="1.0" encoding="utf-8"?>
<!-- Generator: Adobe Illustrator 20.1.0, SVG Export Plug-In . SVG Version: 6.00 Build 0)  -->
<svg version="1.1" id="Lager_1" xmlns="http://www.w3.org/2000/svg" xmlns:xlink="http://www.w3.org/1999/xlink" x="0px" y="0px"
	 viewBox="0 0 177 18" enable-background="new 0 0 177 18" xml:space="preserve">
<g>
	<defs>
		<rect id="SVGID_1_" width="176.7" height="17.2"/>
	</defs>
	<clipPath id="SVGID_2_">
		<use xlink:href="#SVGID_1_"  overflow="visible"/>
	</clipPath>
	<path clip-path="url(#SVGID_2_)" fill="#4BD6D3" d="M168.4,15.5h1.4V6.8c1.1-0.8,1.8-1.3,3.3-1.3c1.4,0,2.2,0.3,2.2,2.2v7.7h1.4
		V8.1c0-2.9-1.4-3.8-3.4-3.8c-1.2,0-2.1,0.5-2.6,0.8l-0.9,1.1L169,4.6h-0.7V15.5z M159.1,9.4c0.1-3.4,1.5-3.9,3.3-3.9
		c1.8,0,2.8,0.8,2.8,3.7v0.2H159.1z M162.5,15.8c1.5,0,2.8-0.5,3.5-0.8l-0.4-1c-1.2,0.5-2,0.8-3.1,0.8c-2.3,0-3.4-1-3.5-4.3h7.5V9.6
		c0-3.4-1.5-5.2-4.2-5.2c-2.7,0-4.7,1.6-4.7,5.7C157.6,13.9,159.2,15.8,162.5,15.8 M153,15.8c2.6,0,3.8-1.4,3.8-3.1
		c0-2-1.1-2.8-3.3-3.3c-2-0.4-2.6-0.5-2.6-2c0-1.5,0.8-1.8,2.4-1.8c1.4,0,2,0.2,2.9,0.5l0.3-1c-0.8-0.4-1.8-0.6-3.1-0.6
		c-2.3,0-3.7,1.1-3.7,3c0,2,1.2,2.7,3,3c2.6,0.5,2.9,0.8,2.9,2.2c0,1.6-1,2-2.5,2c-1.3,0-2.2-0.3-3-0.6l-0.3,1
		C150.4,15.5,151.3,15.8,153,15.8 M143.8,14.7c-1.8,0-2.4-0.5-2.4-2v-0.1c0-1.7,0.7-2.2,3-2.4l2.2-0.2v3.5
		C146,14.2,145.3,14.7,143.8,14.7 M143.6,15.8c0.7,0,1.5-0.2,2.1-0.4l1-1.2l0.6,1.4c0.3,0.1,0.7,0.2,1,0.2c0.4,0,0.8-0.1,1-0.2
		l-0.1-0.9h-0.4c-0.6,0-0.8-0.2-0.8-0.8V8.7c0-3.1-1-4.3-3.7-4.3c-1.4,0-2.4,0.3-3.6,0.7l0.2,1c1.3-0.3,2.2-0.6,3.4-0.6
		c1.9,0,2.2,0.8,2.2,2.6v1l-2.3,0.2c-2.8,0.2-4.3,1.2-4.3,3.3C140,15,141.6,15.8,143.6,15.8 M134.3,14.7c-1.2,0-2-0.4-2.9-1.1V6.8
		c0.6-0.5,1.5-1.3,3.2-1.3c1.8,0,3,0.6,3,4.3v0.2C137.6,13.7,136.5,14.7,134.3,14.7 M134.4,15.8c2.9,0,4.6-1.8,4.6-5.9
		c0-3.8-1.7-5.5-4.3-5.5c-1.6,0-2.6,0.8-3.4,1.5V0h-1.4v15.6h0.6l0.5-1.5l1.2,1.3C132.7,15.5,133.6,15.8,134.4,15.8 M123.2,14.7
		c-1.8,0-2.4-0.5-2.4-2v-0.1c0-1.7,0.7-2.2,3-2.4l2.2-0.2v3.5C125.5,14.2,124.8,14.7,123.2,14.7 M123.1,15.8c0.7,0,1.5-0.2,2.1-0.4
		l1-1.2l0.6,1.4c0.3,0.1,0.7,0.2,1,0.2c0.4,0,0.8-0.1,1-0.2l-0.1-0.9h-0.4c-0.6,0-0.8-0.2-0.8-0.8V8.7c0-3.1-1-4.3-3.7-4.3
		c-1.4,0-2.4,0.3-3.6,0.7l0.2,1c1.3-0.3,2.2-0.6,3.4-0.6c1.9,0,2.2,0.8,2.2,2.6v1l-2.3,0.2c-2.8,0.2-4.3,1.2-4.3,3.3
		C119.4,15,121.1,15.8,123.1,15.8 M116.9,15.7c0.9,0,1.4-0.2,2.1-0.4l-0.1-0.7h-1.8c-0.7,0-0.9-0.3-0.9-1V5.7h2.5V4.6h-2.5V1.7h-0.7
		l-0.6,2.9h-1.6v1.1h1.6v7.8C114.8,15.1,115.4,15.7,116.9,15.7 M107.9,14.7c-1.8,0-2.4-0.5-2.4-2v-0.1c0-1.7,0.7-2.2,3-2.4l2.2-0.2
		v3.5C110.1,14.2,109.5,14.7,107.9,14.7 M107.7,15.8c0.7,0,1.5-0.2,2.1-0.4l1-1.2l0.6,1.4c0.3,0.1,0.7,0.2,1,0.2
		c0.4,0,0.8-0.1,1-0.2l-0.1-0.9h-0.4c-0.6,0-0.8-0.2-0.8-0.8V8.7c0-3.1-1-4.3-3.7-4.3c-1.4,0-2.4,0.3-3.6,0.7l0.2,1
		c1.3-0.3,2.2-0.6,3.4-0.6c1.9,0,2.2,0.8,2.2,2.6v1l-2.3,0.2c-2.8,0.2-4.3,1.2-4.3,3.3C104.1,15,105.7,15.8,107.7,15.8 M98.1,14.7
		c-2.2,0-3.3-1-3.3-4.7V9.9c0-3.7,1.4-4.3,3.1-4.3c1.7,0,2.5,0.6,3.1,1.1v7C100.1,14.3,99.3,14.7,98.1,14.7 M97.9,15.8
		c0.8,0,1.7-0.3,2.1-0.4l1.1-1.2l0.6,1.3h0.7V0H101v5.7c-0.7-0.7-1.6-1.3-3.2-1.3c-2.5,0-4.4,1.7-4.4,5.5
		C93.4,14,95.1,15.8,97.9,15.8 M87.3,15.5h1.4V6.8c0.8-0.7,1.6-1.1,2.7-1.1c0.7,0,1,0.1,1.4,0.2l0.3-1.3c-0.3-0.1-0.7-0.2-1.4-0.2
		c-0.7,0-1.5,0.2-2,0.5l-1.1,1.3l-0.7-1.7h-0.7V15.5z M80.7,14.8c-0.8,0-1.5-0.2-2.1-0.6l4.8-7.5C83.8,7.4,84,8.4,84,10v0.2
		C84,13.6,82.6,14.8,80.7,14.8 M77.9,13.4c-0.5-0.7-0.7-1.8-0.7-3.3V9.9c0-3.5,1.3-4.4,3.4-4.4c0.8,0,1.5,0.1,2.1,0.5L77.9,13.4z
		 M76.6,17.2l1.4-2.2c0.8,0.5,1.7,0.7,2.7,0.7c2.9,0,4.8-2,4.8-5.8c0-1.9-0.5-3.4-1.5-4.3l1.4-2.3L84.7,3l-1.4,2.1
		c-0.8-0.5-1.6-0.7-2.6-0.7c-2.9,0-4.9,1.9-4.9,5.7c0,2,0.5,3.4,1.5,4.4l-1.5,2.3L76.6,17.2z M69.7,14.7c-2.2,0-3.3-1-3.3-4.7V9.9
		c0-3.7,1.4-4.3,3.1-4.3c1.7,0,2.5,0.6,3.1,1.1v7C71.7,14.3,70.9,14.7,69.7,14.7 M69.5,15.8c0.8,0,1.7-0.3,2.1-0.4l1.1-1.2l0.6,1.3
		H74V0h-1.4v5.7C71.9,5,71,4.4,69.4,4.4c-2.5,0-4.4,1.7-4.4,5.5C65,14,66.7,15.8,69.5,15.8 M55,15.5h1.4V6.8
		c1.1-0.8,1.8-1.3,3.3-1.3c1.4,0,2.2,0.3,2.2,2.2v7.7h1.4V8.1c0-2.9-1.4-3.8-3.4-3.8c-1.2,0-2.1,0.5-2.6,0.8l-0.9,1.1l-0.7-1.7H55
		V15.5z M48.3,14.7c-1.8,0-2.4-0.5-2.4-2v-0.1c0-1.7,0.7-2.2,3-2.4l2.2-0.2v3.5C50.5,14.2,49.8,14.7,48.3,14.7 M48.1,15.8
		c0.7,0,1.5-0.2,2.1-0.4l1-1.2l0.6,1.4c0.3,0.1,0.7,0.2,1,0.2c0.4,0,0.8-0.1,1-0.2l-0.1-0.9h-0.4c-0.6,0-0.8-0.2-0.8-0.8V8.7
		c0-3.1-1-4.3-3.7-4.3c-1.4,0-2.4,0.3-3.6,0.7l0.2,1c1.3-0.3,2.2-0.6,3.4-0.6c1.9,0,2.2,0.8,2.2,2.6v1l-2.3,0.2
		c-2.8,0.2-4.3,1.2-4.3,3.3C44.5,15,46.1,15.8,48.1,15.8 M38.5,15.5h1.4V6.8c0.8-0.7,1.6-1.1,2.7-1.1c0.7,0,1,0.1,1.4,0.2l0.3-1.3
		c-0.3-0.1-0.7-0.2-1.4-0.2c-0.7,0-1.5,0.2-2,0.5l-1.1,1.3l-0.7-1.7h-0.7V15.5z M29.2,9.4c0.1-3.4,1.5-3.9,3.3-3.9
		c1.8,0,2.8,0.8,2.8,3.7v0.2H29.2z M32.6,15.8c1.5,0,2.8-0.5,3.5-0.8l-0.4-1c-1.2,0.5-2,0.8-3.1,0.8c-2.3,0-3.4-1-3.5-4.3h7.5V9.6
		c0-3.4-1.5-5.2-4.2-5.2c-2.7,0-4.7,1.6-4.7,5.7C27.7,13.9,29.3,15.8,32.6,15.8 M21.9,15.5h1.6l4-10.9h-1.4l-2.8,7.9L22.7,15
		l-0.5-2.5l-2.8-7.9h-1.5L21.9,15.5z M10.1,9.4c0.1-3.4,1.5-3.9,3.3-3.9c1.8,0,2.8,0.8,2.8,3.7v0.2H10.1z M13.5,15.8
		c1.5,0,2.8-0.5,3.5-0.8l-0.4-1c-1.2,0.5-2,0.8-3.1,0.8c-2.3,0-3.4-1-3.5-4.3h7.5V9.6c0-3.4-1.5-5.2-4.2-5.2c-2.7,0-4.7,1.6-4.7,5.7
		C8.6,13.9,10.2,15.8,13.5,15.8 M0,15.5h8.3v-1.2H1.5V1.8H0V15.5z"/>
</g>
</svg>
