<?xml version="1.0" encoding="utf-8"?>
<!-- Generator: Adobe Illustrator 20.1.0, SVG Export Plug-In . SVG Version: 6.00 Build 0)  -->
<svg version="1.1" id="Lager_1" xmlns="http://www.w3.org/2000/svg" xmlns:xlink="http://www.w3.org/1999/xlink" x="0px" y="0px"
	 viewBox="0 0 289 36" enable-background="new 0 0 289 36" xml:space="preserve">
<g>
	<defs>
		<rect id="SVGID_1_" width="288.5" height="36"/>
	</defs>
	<clipPath id="SVGID_2_">
		<use xlink:href="#SVGID_1_"  overflow="visible"/>
	</clipPath>
	<path clip-path="url(#SVGID_2_)" fill="#4BD5D2" d="M277.2,27.3h1.9V15.5c1.5-1.1,2.5-1.7,4.5-1.7c1.9,0,3,0.4,3,3.1v10.5h1.9v-10
		c0-4-1.9-5.1-4.6-5.1c-1.6,0-2.8,0.6-3.6,1.1l-1.3,1.5l-0.9-2.3h-0.9V27.3z M264.6,19c0.2-4.7,2-5.3,4.4-5.3c2.5,0,3.8,1.1,3.8,5
		V19H264.6z M269.2,27.7c2,0,3.8-0.6,4.8-1.1l-0.5-1.3c-1.6,0.7-2.7,1-4.2,1c-3.1,0-4.7-1.3-4.8-5.8h10.2v-1.2
		c0-4.6-2.1-7.1-5.7-7.1c-3.6,0-6.4,2.2-6.4,7.7C262.6,25.1,264.7,27.7,269.2,27.7 M256.2,27.7c3.6,0,5.2-1.9,5.2-4.3
		c0-2.8-1.5-3.9-4.5-4.5c-2.7-0.6-3.5-0.7-3.5-2.7c0-2.1,1.1-2.5,3.2-2.5c1.9,0,2.7,0.3,3.9,0.7l0.4-1.4c-1.1-0.5-2.4-0.9-4.3-0.9
		c-3.1,0-5,1.5-5,4.1c0,2.7,1.7,3.6,4.1,4.1c3.5,0.7,3.9,1.1,3.9,3.1c0,2.1-1.3,2.7-3.5,2.7c-1.7,0-2.9-0.4-4.1-0.8l-0.4,1.3
		C252.7,27.3,254,27.7,256.2,27.7 M243.7,26.2c-2.5,0-3.3-0.6-3.3-2.7v-0.1c0-2.3,0.9-3,4.1-3.3l2.9-0.3v4.8
		C246.7,25.5,245.8,26.2,243.7,26.2 M243.5,27.7c1,0,2.1-0.2,2.8-0.6l1.3-1.7l0.8,1.9c0.4,0.2,0.9,0.3,1.4,0.3
		c0.6,0,1.1-0.1,1.3-0.3l-0.1-1.2h-0.5c-0.9,0-1.1-0.3-1.1-1.1v-6.9c0-4.2-1.3-5.9-5-5.9c-2,0-3.3,0.4-4.9,1l0.3,1.4
		c1.7-0.5,3-0.8,4.7-0.8c2.6,0,3,1.1,3,3.6v1.3l-3.1,0.2c-3.9,0.3-5.9,1.6-5.9,4.5C238.5,26.6,240.7,27.7,243.5,27.7 M230.7,26.3
		c-1.6,0-2.7-0.5-3.9-1.5v-9.3c0.8-0.7,2.1-1.7,4.3-1.7c2.4,0,4.1,0.8,4.1,5.9v0.3C235.3,24.9,233.8,26.3,230.7,26.3 M231,27.7
		c3.9,0,6.3-2.5,6.3-8c0-5.2-2.3-7.6-5.9-7.6c-2.1,0-3.6,1-4.6,2v-8h-1.9v21.2h0.8l0.7-2l1.6,1.7C228.6,27.4,229.8,27.7,231,27.7
		 M215.7,26.2c-2.5,0-3.3-0.6-3.3-2.7v-0.1c0-2.3,0.9-3,4.1-3.3l2.9-0.3v4.8C218.8,25.5,217.9,26.2,215.7,26.2 M215.5,27.7
		c1,0,2.1-0.2,2.8-0.6l1.3-1.7l0.8,1.9c0.4,0.2,0.9,0.3,1.4,0.3c0.6,0,1.1-0.1,1.3-0.3l-0.1-1.2h-0.5c-0.9,0-1.1-0.3-1.1-1.1v-6.9
		c0-4.2-1.3-5.9-5-5.9c-2,0-3.3,0.4-4.9,1l0.3,1.4c1.7-0.5,3-0.8,4.7-0.8c2.6,0,3,1.1,3,3.6v1.3l-3.1,0.2c-3.9,0.3-5.9,1.6-5.9,4.5
		C210.5,26.6,212.8,27.7,215.5,27.7 M207.1,27.6c1.3,0,2-0.2,2.9-0.5l-0.1-0.9h-2.4c-1,0-1.2-0.3-1.2-1.4V14h3.4v-1.5h-3.4v-4h-1
		l-0.8,4h-2.2V14h2.1v10.6C204.2,26.7,205.1,27.6,207.1,27.6 M194.8,26.2c-2.5,0-3.3-0.6-3.3-2.7v-0.1c0-2.3,0.9-3,4.1-3.3l2.9-0.3
		v4.8C197.9,25.5,196.9,26.2,194.8,26.2 M194.6,27.7c1,0,2.1-0.2,2.8-0.6l1.3-1.7l0.8,1.9c0.4,0.2,0.9,0.3,1.4,0.3
		c0.6,0,1.1-0.1,1.3-0.3l-0.1-1.2h-0.5c-0.9,0-1.1-0.3-1.1-1.1v-6.9c0-4.2-1.3-5.9-5-5.9c-2,0-3.3,0.4-4.9,1l0.3,1.4
		c1.7-0.5,3-0.8,4.7-0.8c2.6,0,3,1.1,3,3.6v1.3l-3.1,0.2c-3.9,0.3-5.9,1.6-5.9,4.5C189.6,26.6,191.9,27.7,194.6,27.7 M181.5,26.3
		c-3,0-4.5-1.4-4.5-6.3v-0.3c0-5.1,1.9-5.9,4.2-5.9c2.3,0,3.4,0.9,4.2,1.5v9.6C184.2,25.7,183.1,26.3,181.5,26.3 M181.2,27.7
		c1.1,0,2.3-0.3,2.9-0.6l1.5-1.6l0.8,1.8h0.9V6.2h-1.9V14c-0.9-0.9-2.2-1.8-4.3-1.8c-3.3,0-6,2.3-6,7.6
		C175,25.3,177.4,27.7,181.2,27.7 M166.7,27.3h1.9V15.4c1.1-0.9,2.2-1.4,3.7-1.4c0.9,0,1.4,0.1,2,0.3l0.4-1.7
		c-0.4-0.1-1-0.3-1.9-0.3c-1,0-2.1,0.3-2.7,0.7l-1.5,1.8l-0.9-2.3h-0.9V27.3z M157.7,26.3c-1.1,0-2.1-0.2-2.9-0.8l6.6-10.2
		c0.6,1,0.9,2.4,0.9,4.5v0.3C162.3,24.8,160.4,26.3,157.7,26.3 M154,24.5c-0.6-1-1-2.5-1-4.5v-0.3c0-4.7,1.8-6,4.7-6
		c1.1,0,2.1,0.2,2.8,0.7L154,24.5z M152.2,29.7l1.9-2.9c1,0.6,2.3,1,3.7,1c4,0,6.6-2.7,6.6-7.9c0-2.6-0.7-4.6-2-5.9l2-3.1l-1.1-0.6
		l-1.9,2.9c-1-0.7-2.2-1-3.6-1c-3.9,0-6.7,2.6-6.7,7.8c0,2.7,0.7,4.7,2,6l-2,3.1L152.2,29.7z M142.8,26.3c-3,0-4.5-1.4-4.5-6.3v-0.3
		c0-5.1,1.9-5.9,4.2-5.9c2.3,0,3.4,0.9,4.2,1.5v9.6C145.6,25.7,144.4,26.3,142.8,26.3 M142.6,27.7c1.1,0,2.3-0.3,2.9-0.6l1.5-1.6
		l0.8,1.8h0.9V6.2h-1.9V14c-0.9-0.9-2.2-1.8-4.3-1.8c-3.3,0-6,2.3-6,7.6C136.4,25.3,138.7,27.7,142.6,27.7 M122.8,27.3h1.9V15.5
		c1.5-1.1,2.5-1.7,4.5-1.7c1.9,0,3,0.4,3,3.1v10.5h1.9v-10c0-4-1.9-5.1-4.6-5.1c-1.6,0-2.8,0.6-3.6,1.1l-1.3,1.5l-0.9-2.3h-0.9V27.3
		z M113.6,26.2c-2.5,0-3.3-0.6-3.3-2.7v-0.1c0-2.3,0.9-3,4.1-3.3l2.9-0.3v4.8C116.7,25.5,115.8,26.2,113.6,26.2 M113.4,27.7
		c1,0,2.1-0.2,2.8-0.6l1.3-1.7l0.8,1.9c0.4,0.2,0.9,0.3,1.4,0.3c0.6,0,1.1-0.1,1.3-0.3l-0.1-1.2h-0.5c-0.9,0-1.1-0.3-1.1-1.1v-6.9
		c0-4.2-1.3-5.9-5-5.9c-2,0-3.3,0.4-4.9,1l0.3,1.4c1.7-0.5,3-0.8,4.7-0.8c2.6,0,3,1.1,3,3.6v1.3l-3.1,0.2c-3.9,0.3-5.9,1.6-5.9,4.5
		C108.4,26.6,110.7,27.7,113.4,27.7 M100.3,27.3h1.9V15.4c1.1-0.9,2.2-1.4,3.7-1.4c0.9,0,1.4,0.1,2,0.3l0.4-1.7
		c-0.4-0.1-1-0.3-1.9-0.3c-1,0-2.1,0.3-2.7,0.7l-1.5,1.8l-0.9-2.3h-0.9V27.3z M87.6,19c0.2-4.7,2-5.3,4.4-5.3c2.5,0,3.8,1.1,3.8,5
		V19H87.6z M92.3,27.7c2,0,3.8-0.6,4.8-1.1l-0.5-1.3c-1.6,0.7-2.7,1-4.2,1c-3.1,0-4.7-1.3-4.8-5.8h10.2v-1.2c0-4.6-2.1-7.1-5.7-7.1
		c-3.6,0-6.4,2.2-6.4,7.7C85.7,25.1,87.8,27.7,92.3,27.7 M77.7,27.3h2.1l5.4-14.8h-1.9l-3.8,10.8l-0.7,3.4l-0.7-3.4l-3.8-10.8h-2
		L77.7,27.3z M61.6,19c0.2-4.7,2-5.3,4.4-5.3c2.5,0,3.8,1.1,3.8,5V19H61.6z M66.2,27.7c2,0,3.8-0.6,4.8-1.1l-0.5-1.3
		c-1.6,0.7-2.7,1-4.2,1c-3.1,0-4.7-1.3-4.8-5.8h10.2v-1.2c0-4.6-2.1-7.1-5.7-7.1c-3.6,0-6.4,2.2-6.4,7.7
		C59.6,25.1,61.8,27.7,66.2,27.7 M47.9,27.3h11.2v-1.7h-9.2V8.7h-2.1V27.3z"/>
	<path clip-path="url(#SVGID_2_)" fill="#003762" d="M18,0.5c-4.7,0-9.1,1.8-12.4,5.1C2.3,8.9,0.5,13.3,0.5,18
		c0,5.9,2.9,11.4,7.9,14.6l-0.9,2.2l-0.3,0.7h0.8H18c9.6,0,17.5-7.9,17.5-17.5C35.5,8.4,27.6,0.5,18,0.5"/>
	<path clip-path="url(#SVGID_2_)" fill="none" stroke="#FFFFFF" stroke-miterlimit="10" d="M18,0.5c-4.7,0-9.1,1.8-12.4,5.1
		C2.3,8.9,0.5,13.3,0.5,18c0,5.9,2.9,11.4,7.9,14.6l-0.9,2.2l-0.3,0.7h0.8H18c9.6,0,17.5-7.9,17.5-17.5C35.5,8.4,27.6,0.5,18,0.5z"
		/>
</g>
<polygon fill="#FFFFFF" points="12.1,19.1 11.7,19.5 11.7,21.3 12.3,21.3 12.3,23.4 7.2,23.4 7.2,21.3 7.8,21.3 7.8,13.9 7.2,13.9 
	7.2,11.7 12.3,11.7 12.3,13.9 11.7,13.9 11.7,16.8 14.2,13.9 13.5,13.9 13.5,11.7 18.1,11.7 18.1,13.9 17.5,13.9 15,16.9 17.5,21.3 
	18.1,21.3 18.1,23.4 14.5,23.4 "/>
<g>
	<defs>
		<rect id="SVGID_3_" width="288.5" height="36"/>
	</defs>
	<clipPath id="SVGID_4_">
		<use xlink:href="#SVGID_3_"  overflow="visible"/>
	</clipPath>
	<path clip-path="url(#SVGID_4_)" fill="#FFFFFF" d="M23.7,17c0.8,0,1.2-0.3,1.2-1.2v-0.6c0-0.9-0.3-1.2-1.2-1.2h-0.6V17H23.7z
		 M18.6,21.3h0.6v-7.4h-0.6v-2.2h6.2c3.2,0,4,1.7,4,3.2v0.4c0,1.3-0.5,2.2-1.5,2.6l1.5,3.3h0.5v2.2h-3.6l-1.9-4.5h-0.6v2.3h0.5v2.2
		h-5V21.3z"/>
</g>
</svg>
