<?xml version="1.0" encoding="utf-8"?>
<!-- Generator: Adobe Illustrator 20.1.0, SVG Export Plug-In . SVG Version: 6.00 Build 0)  -->
<svg version="1.1" id="Lager_1" xmlns="http://www.w3.org/2000/svg" xmlns:xlink="http://www.w3.org/1999/xlink" x="0px" y="0px"
	 viewBox="0 0 346 48" enable-background="new 0 0 346 48" xml:space="preserve">
<g>
	<defs>
		<rect id="SVGID_1_" width="345.6" height="48"/>
	</defs>
	<clipPath id="SVGID_2_">
		<use xlink:href="#SVGID_1_"  overflow="visible"/>
	</clipPath>
	<path clip-path="url(#SVGID_2_)" fill="#FFFFFF" d="M342.8,36.8c1,0,2.1-0.2,2.8-0.4v-1.1c-0.4,0.1-1.6,0.3-2.2,0.3
		c-1.7,0-2.4-0.8-2.4-2.5V18.3h4.6v-1.2H341v-4.2h-1.7v4.2h-2.4v1.2h2.4v15C339.2,35.7,340.4,36.8,342.8,36.8 M325.7,36.6h6.2v-1.2
		h-2.4V21.7c1.5-1.8,3.9-3.2,6.4-3.2V17c-2.8,0-5,1.4-6.4,3.4h-0.1v-3.3h-3.8v1.2h2.1v17.1h-2.1V36.6z M317.4,35.5
		c-3.5,0-6.2-2-6.2-7.8v-1.7c0-5.8,2.7-7.8,6.2-7.8c3.5,0,6.2,2,6.2,7.8v1.7C323.6,33.5,321,35.5,317.4,35.5 M317.4,36.8
		c4.6,0,7.9-2.6,7.9-9.4v-1.3c0-6.7-3.4-9.3-7.9-9.3c-4.5,0-7.9,2.7-7.9,9.3v1.3C309.5,34.2,312.9,36.8,317.4,36.8 M300.1,35.4
		c-1.7,0-3.6-0.3-5-1.2V20.4c1.6-1.4,3.4-2.2,5.4-2.2c3.5,0,5.9,1.3,5.9,7.4v1.8C306.4,33.4,303.5,35.4,300.1,35.4 M291.3,42.2h6.3
		V41h-2.5v-5.5c1.4,0.9,3.5,1.2,5.3,1.2c4.5,0,7.9-2.6,7.9-9.5v-1.5c0-7.1-3.1-8.9-7.2-8.9c-2.5,0-4.5,1-5.9,2.4H295v-2.1h-3.8v1.2
		h2.1V41h-2.1V42.2z M282.2,35.4c-1.7,0-3.6-0.3-5-1.2V20.4c1.6-1.4,3.4-2.2,5.4-2.2c3.5,0,5.9,1.3,5.9,7.4v1.8
		C288.5,33.4,285.7,35.4,282.2,35.4 M273.4,42.2h6.3V41h-2.5v-5.5c1.4,0.9,3.5,1.2,5.3,1.2c4.5,0,7.9-2.6,7.9-9.5v-1.5
		c0-7.1-3.1-8.9-7.2-8.9c-2.5,0-4.5,1-5.9,2.4h-0.1v-2.1h-3.8v1.2h2.1V41h-2.1V42.2z M264.8,35.5c-2.7,0-4.1-1.4-4.1-3.7v-1.2
		c0-2.5,1.8-3.5,4.4-3.8l4.9-0.5v6.8C268.8,34.6,266.6,35.5,264.8,35.5 M264.5,36.8c2.1,0,4.5-1,5.6-2.5h0.1
		c0.1,1.6,0.8,2.4,2.6,2.4c0.5,0,1.1-0.1,1.4-0.2v-1.1h-0.8c-1.1,0-1.6-0.4-1.6-1.9V21.7c0-3.7-2.2-4.9-5.6-4.9
		c-2.3,0-4.4,0.6-5.8,1.2v1.2c1.2-0.5,3.5-1,5.5-1c2.7,0,4.2,0.8,4.2,3.7v3.3l-5.4,0.7c-3.1,0.4-5.5,1.7-5.5,4.9v1.2
		C259,35,260.8,36.8,264.5,36.8 M244,24V12.7h4.2c4.2,0,5.9,1.4,5.9,5v1.1c0,3.6-2.1,5.2-5.8,5.2H244z M239.8,36.6h6.7v-1.2H244
		V25.2h5l6.5,11.3h3.2v-1.2h-1.8l-6-10.4c3.8-0.7,5.2-3.2,5.2-6.4v-0.9c0-4-2.2-6.2-7.5-6.2h-8.7v1.2h2.3v22.7h-2.3V36.6z"/>
	<path clip-path="url(#SVGID_2_)" fill="#FFFFFF" d="M225.3,36.6h10.1v-4.7h-1.3V10h-8.8v4.7h1.3v17.2h-1.3V36.6z M214.9,32.7
		c-0.8,0-1.5-0.5-1.5-1.5v-1.4c0-1.4,0.8-1.8,1.8-2l1-0.1v4.4C216,32.5,215.4,32.7,214.9,32.7 M211.6,36.9c2.4,0,4.5-0.8,5.3-2.7
		h0.1c0.4,1.6,1.5,2.6,4.5,2.6c1.8,0,2.7-0.2,3.5-0.4v-4.5h-0.5c-0.5,0-0.7-0.2-0.7-0.8V22c0-4.5-2.6-6.2-7.7-6.2
		c-3.6,0-6.2,0.7-8.2,1.3v4.9c1.4-0.2,2.8-0.4,4.7-0.4c2.9,0,3.7,0.4,3.7,1.6v1l-3.8,0.6c-3.3,0.5-6.2,1.8-6.2,5.5v1
		C206.2,35.4,208.3,36.9,211.6,36.9 M185.2,36.6h9.5v-4.7H194V22c0.7-0.4,1.2-0.5,1.9-0.5c0.9,0,1.3,0.3,1.3,1.6v8.8h-0.8v4.7h9.5
		v-4.7h-1.2V20.4c0-3.3-2.2-4.6-5-4.6c-2.9,0-4.5,1.1-5.8,2.6h-0.2v-2.1h-8.5v5h1.3v10.7h-1.3V36.6z M170.6,37
		c2.7,0,4.1-0.9,5.4-2.2h0.2v1.7h8.5v-4.7h-1.3V16.2h-8.7v5h1.2v9.5c-0.5,0.4-1.1,0.6-1.8,0.6c-1,0-1.4-0.5-1.4-1.7V16.2H164v5h1.2
		v10.4C165.2,34.9,166.5,37,170.6,37 M133,36.6h9.5v-4.7h-0.7V22c0.7-0.3,1.1-0.5,1.7-0.5c0.9,0,1.3,0.3,1.3,1.6v8.8h-0.7v4.7h8.9
		v-4.7h-0.7V22c0.5-0.3,1.1-0.5,1.7-0.5c0.9,0,1.3,0.3,1.3,1.6v8.8h-0.7v4.7h9.4v-4.7h-1.2V20.4c0-3.3-2.1-4.6-4.9-4.6
		c-2.9,0-4.4,1.1-5.7,2.6h-0.2c-0.7-1.8-2.4-2.6-4.5-2.6c-2.9,0-4.3,1.1-5.6,2.6h-0.1v-2.1H133v5h1.3v10.7H133V36.6z M101.7,36.6
		h9.5v-4.7h-0.7V22c0.7-0.3,1.1-0.5,1.7-0.5c0.9,0,1.3,0.3,1.3,1.6v8.8h-0.7v4.7h8.9v-4.7h-0.7V22c0.5-0.3,1.1-0.5,1.7-0.5
		c0.9,0,1.3,0.3,1.3,1.6v8.8h-0.7v4.7h9.4v-4.7h-1.2V20.4c0-3.3-2.1-4.6-4.9-4.6c-2.9,0-4.4,1.1-5.7,2.6h-0.2
		c-0.7-1.8-2.4-2.6-4.5-2.6c-2.9,0-4.3,1.1-5.6,2.6h-0.1v-2.1h-8.5v5h1.3v10.7h-1.3V36.6z M91.8,31.8c-1.4,0-2-0.9-2-3.6v-3.4
		c0-2.7,0.6-3.6,2-3.6s2,0.9,2,3.6v3.4C93.7,31,93.2,31.8,91.8,31.8 M91.8,37c5.8,0,9.7-3.4,9.7-10v-1.3c0-6.6-3.9-10-9.7-10
		s-9.6,3.4-9.6,10V27C82.2,33.6,86,37,91.8,37 M74.3,36.6h7.8v-4.7h-1.2l-5.3-9.4l5.3-6.3H82v-4.7h-9.7v4.7h1.4l-5.3,6.1v-6.1h1.4
		v-4.7h-11v4.7H60v15.8h-1.3v4.7h11v-4.7h-1.4v-3.8l0.9-0.8L74.3,36.6z"/>
	<path clip-path="url(#SVGID_2_)" fill="#003762" d="M24,0.7c-6.2,0-12.1,2.4-16.4,6.8C3.2,11.9,0.7,17.8,0.7,24
		c0,7.9,3.9,15.1,10.4,19.4L10,46.2l-0.5,1h1.1H24c12.8,0,23.3-10.4,23.3-23.3C47.3,11.2,36.8,0.7,24,0.7"/>
	<path clip-path="url(#SVGID_2_)" fill="none" stroke="#FFFFFF" stroke-width="1.495" stroke-miterlimit="10" d="M24,0.7
		c-6.2,0-12.1,2.4-16.4,6.8C3.2,11.9,0.7,17.8,0.7,24c0,7.9,3.9,15.1,10.4,19.4L10,46.2l-0.5,1h1.1H24c12.8,0,23.3-10.4,23.3-23.3
		C47.3,11.2,36.8,0.7,24,0.7z"/>
	<path clip-path="url(#SVGID_2_)" fill="#FFFFFF" d="M19.2,31.4h4.9v-3h-0.8l-3.3-6l3.4-4h0.7v-3h-6.2v3h0.9l-3.4,3.9v-3.9h0.9v-3
		h-7v3h0.8v10H9.3v3h7v-3h-0.9V26l0.6-0.5L19.2,31.4z M33.3,21c0,1.2-0.6,1.7-1.6,1.7h-0.8v-4.1h0.8c1.2,0,1.6,0.4,1.6,1.6V21z
		 M39.2,31.4v-3h-0.6l-2.1-4.5c1.4-0.6,2.1-1.8,2.1-3.6v-0.5c0-2.1-1.1-4.4-5.4-4.4h-8.4v3h0.8v10h-0.8v3h6.8v-3h-0.7v-3.1h0.8
		l2.6,6.1H39.2z"/>
</g>
</svg>
